<svg xmlns="http://www.w3.org/2000/svg" version="1.1" xmlns:xlink="http://www.w3.org/1999/xlink" xmlns:svgjs="http://svgjs.dev/svgjs" width="1000" height="1125" viewBox="0 0 1000 1125"><g transform="matrix(1,0,0,1,0.00006703125001195076,0)"><svg viewBox="0 0 320 360" data-background-color="#ffffff" preserveAspectRatio="xMidYMid meet" height="1125" width="1000" xmlns="http://www.w3.org/2000/svg" xmlns:xlink="http://www.w3.org/1999/xlink"><g id="tight-bounds" transform="matrix(1,0,0,1,0,0)"><svg viewBox="0 0 320 360" height="360" width="320"><rect width="320.00002145" height="360" fill="url(#0ee0cac6-3751-4f6c-8d22-adfbf6931b9a)" mask="url(&quot;#f3c510d3-7be5-4777-aeea-9c7765138955&quot;)" data-fill-palette-color="tertiary"></rect><g><svg></svg></g><g><svg viewBox="0 0 320 360" height="360" width="320"><g><path transform="translate(-21.67367,-1.67367) scale(3.63347,3.63347)" d="M87.84 28.16c-3.42-5.92-31.01-21.84-37.84-21.84-6.83 0-34.41 15.92-37.84 21.84-3.19 5.51-3.19 38.18 0 43.69 3.43 5.91 31.01 21.83 37.84 21.83 6.83 0 34.42-15.92 37.84-21.84 3.19-5.51 3.19-38.17 0-43.68zM91.14 26.25c-3.98-6.88-32.88-23.75-41.14-23.75-8.26 0-37.16 16.87-41.14 23.75-3.86 6.66-3.86 40.84 0 47.5 3.98 6.88 32.88 23.75 41.14 23.75 8.26 0 37.16-16.87 41.14-23.74 3.86-6.67 3.86-40.85 0-47.51zM88.78 72.39c-3.51 6.07-31.78 22.38-38.78 22.38-7 0-35.27-16.32-38.78-22.39-3.27-5.65-3.27-39.13 0-44.78 3.51-6.06 31.78-22.37 38.78-22.37 7 0 35.27 16.32 38.78 22.38 3.27 5.65 3.27 39.13 0 44.78z" fill="url(#0ee0cac6-3751-4f6c-8d22-adfbf6931b9a)" fill-rule="nonzero" stroke="none" stroke-width="1" stroke-linecap="butt" stroke-linejoin="miter" stroke-miterlimit="10" stroke-dasharray="" stroke-dashoffset="0" font-family="none" font-weight="none" font-size="none" text-anchor="none" style="mix-blend-mode: normal" data-fill-palette-color="tertiary"></path></g><g transform="matrix(1,0,0,1,86.68007236721056,90)"><svg viewBox="0 0 146.6398552655789 180" height="180" width="146.6398552655789"><g><svg viewBox="0 0 146.6398552655789 180" height="180" width="146.6398552655789"><g><svg viewBox="0 0 224 274.95935485599466" height="180" width="146.6398552655789"><g transform="matrix(1,0,0,1,0,169.9359121232418)"><svg viewBox="0 0 224 105.02344273275284" height="105.02344273275284" width="224"><g id="textblocktransform"><svg viewBox="0 0 224 105.02344273275284" height="105.02344273275284" width="224" id="textblock"><g><svg viewBox="0 0 224 105.02344273275284" height="105.02344273275284" width="224"><g transform="matrix(1,0,0,1,0,0)"><svg width="224" viewBox="0.6 -35 74.64 35" height="105.02344273275284" data-palette-color="#7fdbff"><path d="M0.6 0L6.3-35 13.75-35 19.45 0 13.95 0 12.95-6.95 12.95-6.85 6.7-6.85 5.7 0 0.6 0ZM7.35-11.6L12.3-11.6 9.85-28.9 9.75-28.9 7.35-11.6ZM22.1 0L22.1-35 27.6-35 27.6-5 36.65-5 36.65 0 22.1 0ZM39.3 0L39.3-35 54.3-35 54.3-30 44.8-30 44.8-20.75 52.35-20.75 52.35-15.75 44.8-15.75 44.8-5 54.3-5 54.3 0 39.3 0ZM56.04 0L62.39-17.9 56.34-35 62.14-35 65.84-23.7 65.94-23.7 69.74-35 74.94-35 68.89-17.9 75.24 0 69.44 0 65.44-12.2 65.34-12.2 61.24 0 56.04 0Z" opacity="1" transform="matrix(1,0,0,1,0,0)" fill="#7fdbff" class="undefined-text-0" data-fill-palette-color="quaternary" id="text-0"></path></svg></g></svg></g></svg></g></svg></g><g transform="matrix(1,0,0,1,56.755757560980506,0)"><svg viewBox="0 0 110.48848487803899 145.14239785666445" height="145.14239785666445" width="110.48848487803899"><g><svg xmlns="http://www.w3.org/2000/svg" xmlns:xlink="http://www.w3.org/1999/xlink" version="1.1" x="0" y="0" viewBox="14.5 3.3 71.1 93.39999999999999" enable-background="new 0 0 100 100" xml:space="preserve" height="145.14239785666445" width="110.48848487803899" class="icon-icon-0" data-fill-palette-color="quaternary" id="icon-0"><path d="M52.1 84.4v8.1h12.2c1.2 0 2.1 1 2.1 2.1s-1 2.1-2.1 2.1H35.7c-1.2 0-2.1-1-2.1-2.1s1-2.1 2.1-2.1h12.2v-8.1H18.7c-2.3 0-4.2-1.9-4.2-4.2V39.9c0-2.3 1.9-4.2 4.2-4.2H33c1.2 0 2.1 1 2.1 2.1s-1 2.1-2.1 2.1H18.7l0 17.6v22.7l31.2 0c0 0 0 0 0.1 0 0 0 0 0 0.1 0l31.2 0 0-40.3-14.2 0c-1.2 0-2.1-1-2.1-2.1s1-2.1 2.1-2.1h14.3c2.3 0 4.2 1.9 4.2 4.2v40.3c0 2.3-1.9 4.2-4.2 4.2H52.1zM50.2 3.3c3.5 0.1 6.3 3 6.2 6.5-0.1 2.7-1.8 5-4.2 5.8v52.9c0 1.2-1 2.1-2.1 2.1-1.2 0-2.1-1-2.1-2.1V15.6c-0.9-0.3-1.8-0.9-2.5-1.6-1.2-1.2-1.8-2.8-1.8-4.5 0.1-3.4 2.9-6.2 6.4-6.2L50.2 3.3zM50.1 7.5L50.1 7.5c-1.2 0-2.1 0.9-2.2 2.1 0 0.6 0.2 1.1 0.6 1.5 0.4 0.4 0.9 0.6 1.5 0.7l0.1 0c1.1 0 2.1-0.9 2.1-2.1C52.1 8.5 51.2 7.6 50.1 7.5zM57.2 58.6V25.9c0-3.8 3.1-6.9 6.9-6.9h4.8c0.9-2.5 3.2-4.2 6-4.2 3.5 0 6.4 2.9 6.4 6.4s-2.9 6.4-6.4 6.4c-2.8 0-5.1-1.8-6-4.2h-4.8c-1.5 0-2.6 1.2-2.6 2.6v32.7c0 1.2-1 2.1-2.1 2.1C58.2 60.8 57.2 59.8 57.2 58.6zM72.8 21.2c0 1.2 0.9 2.1 2.1 2.1 1.2 0 2.1-0.9 2.1-2.1S76.1 19 74.9 19C73.7 19 72.8 20 72.8 21.2zM38.5 58.6V25.9c0-1.5-1.2-2.6-2.6-2.6h-4.8c-0.9 2.5-3.2 4.2-6 4.2-3.5 0-6.4-2.9-6.4-6.4s2.9-6.4 6.4-6.4c2.8 0 5.1 1.8 6 4.2h4.8c3.8 0 6.9 3.1 6.9 6.9v32.7c0 1.2-1 2.1-2.1 2.1S38.5 59.8 38.5 58.6zM27.2 21.2c0-1.2-0.9-2.1-2.1-2.1S23 20 23 21.2s0.9 2.1 2.1 2.1S27.2 22.3 27.2 21.2z" fill="#7fdbff" data-fill-palette-color="quaternary"></path></svg></g></svg></g><g></g></svg></g></svg></g></svg></g></svg></g><defs></defs><mask id="f3c510d3-7be5-4777-aeea-9c7765138955"><g id="SvgjsG1111"><svg viewBox="0 0 320 360" height="360" width="320"><g><svg></svg></g><g><svg viewBox="0 0 320 360" height="360" width="320"><g><path transform="translate(-21.67367,-1.67367) scale(3.63347,3.63347)" d="M87.84 28.16c-3.42-5.92-31.01-21.84-37.84-21.84-6.83 0-34.41 15.92-37.84 21.84-3.19 5.51-3.19 38.18 0 43.69 3.43 5.91 31.01 21.83 37.84 21.83 6.83 0 34.42-15.92 37.84-21.84 3.19-5.51 3.19-38.17 0-43.68zM91.14 26.25c-3.98-6.88-32.88-23.75-41.14-23.75-8.26 0-37.16 16.87-41.14 23.75-3.86 6.66-3.86 40.84 0 47.5 3.98 6.88 32.88 23.75 41.14 23.75 8.26 0 37.16-16.87 41.14-23.74 3.86-6.67 3.86-40.85 0-47.51zM88.78 72.39c-3.51 6.07-31.78 22.38-38.78 22.38-7 0-35.27-16.32-38.78-22.39-3.27-5.65-3.27-39.13 0-44.78 3.51-6.06 31.78-22.37 38.78-22.37 7 0 35.27 16.32 38.78 22.38 3.27 5.65 3.27 39.13 0 44.78z" fill="white" fill-rule="nonzero" stroke="none" stroke-width="1" stroke-linecap="butt" stroke-linejoin="miter" stroke-miterlimit="10" stroke-dasharray="" stroke-dashoffset="0" font-family="none" font-weight="none" font-size="none" text-anchor="none" style="mix-blend-mode: normal"></path></g><g transform="matrix(1,0,0,1,86.68007236721056,90)"><svg viewBox="0 0 146.6398552655789 180" height="180" width="146.6398552655789"><g><svg viewBox="0 0 146.6398552655789 180" height="180" width="146.6398552655789"><g><svg viewBox="0 0 224 274.95935485599466" height="180" width="146.6398552655789"><g transform="matrix(1,0,0,1,0,169.9359121232418)"><svg viewBox="0 0 224 105.02344273275284" height="105.02344273275284" width="224"><g id="SvgjsG1110"><svg viewBox="0 0 224 105.02344273275284" height="105.02344273275284" width="224" id="SvgjsSvg1109"><g><svg viewBox="0 0 224 105.02344273275284" height="105.02344273275284" width="224"><g transform="matrix(1,0,0,1,0,0)"><svg width="224" viewBox="0.6 -35 74.64 35" height="105.02344273275284" data-palette-color="#7fdbff"></svg></g></svg></g></svg></g></svg></g><g transform="matrix(1,0,0,1,56.755757560980506,0)"><svg viewBox="0 0 110.48848487803899 145.14239785666445" height="145.14239785666445" width="110.48848487803899"><g><svg xmlns="http://www.w3.org/2000/svg" xmlns:xlink="http://www.w3.org/1999/xlink" version="1.1" x="0" y="0" viewBox="14.5 3.3 71.1 93.39999999999999" enable-background="new 0 0 100 100" xml:space="preserve" height="145.14239785666445" width="110.48848487803899" class="icon-icon-0" data-fill-palette-color="quaternary" id="SvgjsSvg1107"></svg></g></svg></g><g></g></svg></g></svg></g></svg></g></svg></g><defs><mask></mask></defs></svg></g></mask><linearGradient x1="0.054" x2="0.941" y1="0.5" y2="0.5" id="0ee0cac6-3751-4f6c-8d22-adfbf6931b9a"><stop stop-color="#0f3054" offset="0"></stop><stop stop-color="#3b8dcb" offset="0.498"></stop><stop stop-color="#0f3054" offset="1"></stop></linearGradient></svg><rect width="320" height="360" fill="none" stroke="none" visibility="hidden"></rect></g></svg></g></svg>