<svg xmlns="http://www.w3.org/2000/svg" version="1.1" xmlns:xlink="http://www.w3.org/1999/xlink" xmlns:svgjs="http://svgjs.dev/svgjs" width="1000" height="404" viewBox="0 0 1000 404"><g transform="matrix(1,0,0,1,-0.6060605064728293,-0.27548529775035036)"><svg viewBox="0 0 396 160" data-background-color="#ffffff" preserveAspectRatio="xMidYMid meet" height="404" width="1000" xmlns="http://www.w3.org/2000/svg" xmlns:xlink="http://www.w3.org/1999/xlink"><g id="tight-bounds" transform="matrix(1,0,0,1,0.24000003943683623,0.10910308821796377)"><svg viewBox="0 0 395.52 159.78178330054837" height="159.78178330054837" width="395.52"><g><svg viewBox="0 0 634.3893879858977 256.28000535833894" height="159.78178330054837" width="395.52"><g transform="matrix(1,0,0,1,0,35.41930609511053)"><svg viewBox="0 0 395.52 185.44139316811788" height="185.44139316811788" width="395.52"><g id="textblocktransform"><svg viewBox="0 0 395.52 185.44139316811788" height="185.44139316811788" width="395.52" id="textblock"><g><svg viewBox="0 0 395.52 185.44139316811788" height="185.44139316811788" width="395.52"><g transform="matrix(1,0,0,1,0,0)"><svg width="395.52" viewBox="0.6000000238418579 -35 74.54000091552734 35" height="185.44139316811788" data-palette-color="#4790fc"><g class="undefined-text-0" data-fill-palette-color="primary" id="text-0"><path d="M0.6 0L6.3-35 13.75-35 19.45 0 13.95 0 12.95-6.95 12.95-6.85 6.7-6.85 5.7 0 0.6 0ZM7.35-11.6L12.3-11.6 9.85-28.9 9.75-28.9 7.35-11.6ZM22.1 0L22.1-35 27.6-35 27.6-5 36.65-5 36.65 0 22.1 0ZM39.3 0L39.3-35 54.3-35 54.3-30 44.8-30 44.8-20.75 52.35-20.75 52.35-15.75 44.8-15.75 44.8-5 54.3-5 54.3 0 39.3 0ZM55.94 0L62.29-17.9 56.24-35 62.04-35 65.74-23.7 65.84-23.7 69.64-35 74.84-35 68.79-17.9 75.14 0 69.34 0 65.34-12.2 65.24-12.2 61.14 0 55.94 0Z" fill="#4790fc" data-fill-palette-color="primary"></path></g></svg></g></svg></g></svg></g></svg></g><g transform="matrix(1,0,0,1,439.2982623335566,0)"><svg viewBox="0 0 195.09112565234102 256.28000535833894" height="256.28000535833894" width="195.09112565234102"><g><svg xmlns="http://www.w3.org/2000/svg" xmlns:xlink="http://www.w3.org/1999/xlink" version="1.1" x="0" y="0" viewBox="14.500000953674316 3.299999952316284 71.10000610351562 93.39999389648438" enable-background="new 0 0 100 100" xml:space="preserve" height="256.28000535833894" width="195.09112565234102" class="icon-icon-0" data-fill-palette-color="accent" id="icon-0"><path d="M52.1 84.4v8.1h12.2c1.2 0 2.1 1 2.1 2.1s-1 2.1-2.1 2.1H35.7c-1.2 0-2.1-1-2.1-2.1s1-2.1 2.1-2.1h12.2v-8.1H18.7c-2.3 0-4.2-1.9-4.2-4.2V39.9c0-2.3 1.9-4.2 4.2-4.2H33c1.2 0 2.1 1 2.1 2.1s-1 2.1-2.1 2.1H18.7l0 17.6v22.7l31.2 0c0 0 0 0 0.1 0 0 0 0 0 0.1 0l31.2 0 0-40.3-14.2 0c-1.2 0-2.1-1-2.1-2.1s1-2.1 2.1-2.1h14.3c2.3 0 4.2 1.9 4.2 4.2v40.3c0 2.3-1.9 4.2-4.2 4.2H52.1zM50.2 3.3c3.5 0.1 6.3 3 6.2 6.5-0.1 2.7-1.8 5-4.2 5.8v52.9c0 1.2-1 2.1-2.1 2.1-1.2 0-2.1-1-2.1-2.1V15.6c-0.9-0.3-1.8-0.9-2.5-1.6-1.2-1.2-1.8-2.8-1.8-4.5 0.1-3.4 2.9-6.2 6.4-6.2L50.2 3.3zM50.1 7.5L50.1 7.5c-1.2 0-2.1 0.9-2.2 2.1 0 0.6 0.2 1.1 0.6 1.5 0.4 0.4 0.9 0.6 1.5 0.7l0.1 0c1.1 0 2.1-0.9 2.1-2.1C52.1 8.5 51.2 7.6 50.1 7.5zM57.2 58.6V25.9c0-3.8 3.1-6.9 6.9-6.9h4.8c0.9-2.5 3.2-4.2 6-4.2 3.5 0 6.4 2.9 6.4 6.4s-2.9 6.4-6.4 6.4c-2.8 0-5.1-1.8-6-4.2h-4.8c-1.5 0-2.6 1.2-2.6 2.6v32.7c0 1.2-1 2.1-2.1 2.1C58.2 60.8 57.2 59.8 57.2 58.6zM72.8 21.2c0 1.2 0.9 2.1 2.1 2.1 1.2 0 2.1-0.9 2.1-2.1S76.1 19 74.9 19C73.7 19 72.8 20 72.8 21.2zM38.5 58.6V25.9c0-1.5-1.2-2.6-2.6-2.6h-4.8c-0.9 2.5-3.2 4.2-6 4.2-3.5 0-6.4-2.9-6.4-6.4s2.9-6.4 6.4-6.4c2.8 0 5.1 1.8 6 4.2h4.8c3.8 0 6.9 3.1 6.9 6.9v32.7c0 1.2-1 2.1-2.1 2.1S38.5 59.8 38.5 58.6zM27.2 21.2c0-1.2-0.9-2.1-2.1-2.1S23 20 23 21.2s0.9 2.1 2.1 2.1S27.2 22.3 27.2 21.2z" fill="#ed2326" data-fill-palette-color="accent"></path></svg></g></svg></g></svg></g><defs></defs></svg><rect width="395.52" height="159.78178330054837" fill="none" stroke="none" visibility="hidden"></rect></g></svg></g></svg>